<?xml version="1.0" encoding="UTF-8"?>
<svg id="Layer_2" xmlns="http://www.w3.org/2000/svg" viewBox="0 0 889.77 51.46">
  <defs>
    <style>
      .cls-1 {
        fill: #1d1d1b;
      }
    </style>
  </defs>
  <g id="Layer_1-2" data-name="Layer_1">
    <g>
      <path class="cls-1" d="M126.71,29.66c2.45-.88,4.53-2.04,6.27-3.47,1.74-1.42,3.09-3.07,4.03-4.89.94-1.84,1.42-3.75,1.42-5.71s-.54-3.83-1.64-5.69c-1.08-1.86-2.59-3.53-4.51-4.99-1.92-1.48-4.25-2.67-6.94-3.55C122.66.45,119.75.01,116.63.01h-37.93v51.42h8.62v-20.21h22.33l19.62,20.21h9.06l-19.62-20.21c2.91-.16,5.57-.66,8-1.56h0ZM87.32,29.76V1.45h22.87c2.69,0,5.23.4,7.64,1.2,2.41.78,4.49,1.84,6.27,3.15,1.76,1.3,3.17,2.81,4.19,4.49,1.02,1.68,1.52,3.45,1.52,5.29s-.44,3.51-1.3,5.21c-.88,1.68-2.12,3.19-3.77,4.51-1.62,1.34-3.61,2.41-5.93,3.23-2.33.82-4.95,1.22-7.86,1.22h-23.63Z"/>
      <polygon class="cls-1" points="298.36 .05 298.34 .01 298.22 .01 298.3 .13 332 51.43 332.02 51.43 298.36 .05"/>
      <polygon class="cls-1" points="422.58 7.63 422.92 7.33 424.77 5.22 422.58 7.63"/>
      <path class="cls-1" d="M670.57.01h-.14l26.78,26.62L670.57.01ZM698.59,27.99l-1.36-1.36h-.02l1.28,1.44v.02l.1-.1Z"/>
      <polygon class="cls-1" points="889.77 51.42 880.49 51.42 850 25.88 835.81 35.42 835.81 51.42 827.19 51.42 827.19 .08 835.81 .08 835.81 33.4 848.62 24.72 850.2 23.63 853.73 21.25 885.08 0 888.25 0 855.21 22.45 889.77 51.42"/>
      <path class="cls-1" d="M58.11,9.89c-1.1-1.86-2.61-3.53-4.53-4.99-1.92-1.48-4.23-2.67-6.92-3.55C43.96.45,41.05.01,37.95.01H0v51.42h8.62v-20.21h30.09c3.11,0,5.97-.44,8.54-1.3,2.59-.88,4.81-2.02,6.66-3.49,1.86-1.44,3.29-3.11,4.31-4.99,1.02-1.88,1.52-3.83,1.52-5.85s-.54-3.83-1.62-5.69h0ZM49.81,20.72c-.86,1.68-2.1,3.21-3.71,4.57-1.6,1.34-3.57,2.43-5.93,3.25-2.37.82-4.99,1.22-7.9,1.22H8.62V1.45h22.89c2.69,0,5.23.4,7.62,1.2,2.41.78,4.49,1.84,6.27,3.15,1.78,1.3,3.17,2.81,4.19,4.49,1.02,1.68,1.52,3.45,1.52,5.29,0,1.72-.42,3.45-1.3,5.13h0Z"/>
      <rect class="cls-1" x="160.35" y=".07" width="8.6" height="51.36"/>
      <polygon class="cls-1" points="254.84 .01 254.84 1.45 225.19 1.45 225.19 51.43 216.57 51.43 216.57 1.45 186.93 1.45 186.93 .01 254.84 .01"/>
      <path class="cls-1" d="M298.3.13l-.08-.12h-8.28l-.08.12-33.72,51.3h8.84l12.09-18.4h34.02l12.09,18.4h8.82L298.3.13ZM277.95,31.58l16.18-24.56,15.98,24.56h-32.15Z"/>
      <polygon class="cls-1" points="697.23 26.63 697.21 26.63 698.49 28.07 698.59 27.99 697.23 26.63"/>
      <polygon class="cls-1" points="298.38 .01 298.36 .05 298.3 .13 298.22 .01 298.38 .01"/>
      <polygon class="cls-1" points="289.94 .01 289.86 .13 289.78 .01 289.94 .01"/>
      <polygon class="cls-1" points="431.2 .01 431.2 51.43 422.58 51.43 422.58 10.33 394.68 41.28 386.5 41.28 358.62 10.33 358.62 51.43 350 51.43 350 .01 358.62 .01 372.43 15.83 372.67 16.09 390.61 35.97 391.81 37.32 393.82 39.54 422.58 7.63 422.92 7.33 424.77 5.22 424.81 5.18 429.46 .01 431.2 .01"/>
      <polygon class="cls-1" points="567.33 .01 567.33 51.43 558.39 51.43 506.51 2.38 506.51 51.43 497.91 51.43 497.91 .01 506.51 .01 558.73 49.32 558.73 .01 567.33 .01"/>
      <path class="cls-1" d="M637.91,15.91L627.51.01h-8.4l-33.8,51.42h8.84l12.11-18.4h34l12.09,18.4h.7l.02.02h8.82l-23.97-35.54ZM607.12,31.58l16.18-24.56,15.98,24.56h-32.15Z"/>
      <path class="cls-1" d="M786.07,16.1l-10.54-16.1h-8.4l-33.78,51.42h8.82l12.11-18.38h34l12.11,18.38h.68l.02.04h8.82l-23.83-35.36ZM755.14,31.57l16.18-24.56,15.98,24.56h-32.15Z"/>
      <polygon class="cls-1" points="732.91 .01 701.52 31.5 701.52 51.43 692.9 51.43 692.9 31.36 661.63 .01 670.43 .01 697.21 26.63 698.49 28.07 698.49 28.09 698.59 27.99 700.44 29.84 730.4 .01 732.91 .01"/>
      <polygon class="cls-1" points="692.9 31.36 692.9 31.4 661.63 .01 692.9 31.36"/>
      <polygon class="cls-1" points="698.49 28.09 698.49 28.07 697.21 26.63 697.23 26.63 698.59 27.99 698.49 28.09"/>
    </g>
  </g>
</svg>